<svg width="65" height="60" viewBox="0 0 65 60" fill="none" xmlns="http://www.w3.org/2000/svg">
<path d="M64.75 30C64.75 46.412 50.3304 59.75 32.5 59.75C14.6696 59.75 0.25 46.412 0.25 30C0.25 13.588 14.6696 0.25 32.5 0.25C50.3304 0.25 64.75 13.588 64.75 30Z" stroke="black" stroke-width="0.5"/>
<path d="M16.4626 11.1178C15.6929 11.3006 14.9308 11.735 14.3288 12.3294C13.7192 12.9467 13.361 13.5563 13.1477 14.3641C13.0105 14.9051 13.0029 15.4157 13.0029 30.4661C12.9952 47.376 12.9724 46.4463 13.4144 47.3988C13.8487 48.3514 14.687 49.182 15.6319 49.6011C16.615 50.0355 15.6548 50.0126 32.6942 49.9898L48.3923 49.9745L48.88 49.8069C50.3051 49.3039 51.3033 48.3057 51.8063 46.8806L51.974 46.3929L51.9892 30.6947C52.0121 13.2591 52.0502 14.5622 51.4939 13.4344C51.1205 12.6647 50.3508 11.895 49.5659 11.5064C48.4533 10.9577 49.7183 10.9958 32.4655 11.0034C19.2745 11.0111 16.8512 11.0263 16.4626 11.1178ZM46.8378 15.7586C47.4626 16.2006 47.4779 16.2463 47.5007 19.1497C47.5236 21.9769 47.5084 22.1217 47.0435 22.5713C46.6244 22.9828 46.4262 23.0057 43.6676 22.9981L41.1529 22.9904L40.81 22.8076C40.6195 22.7009 40.3756 22.4723 40.246 22.2741L40.0174 21.9388L40.0098 19.4164C40.0022 18.0371 40.0327 16.7798 40.0708 16.635C40.1775 16.2082 40.4366 15.8805 40.8481 15.6748L41.2291 15.4843L43.8734 15.5071L46.5101 15.53L46.8378 15.7586ZM34.0201 23.1581C36.9388 23.7601 39.2401 26.0767 39.8574 29.0259C39.987 29.6431 40.0327 30.8853 39.9412 31.5025C39.6135 33.8496 38.1047 36.0062 36.0319 37.1112C35.4223 37.4389 34.4697 37.7894 34.0201 37.858C33.8753 37.8732 33.5705 37.919 33.3419 37.9571C32.397 38.0942 31.2463 37.9723 30.187 37.6294C28.6934 37.1417 27.4741 36.2729 26.5444 35.046C24.4412 32.2569 24.4945 28.5229 26.6892 25.7872C27.8856 24.2859 29.8212 23.2343 31.7187 23.0514C32.496 22.9752 33.3038 23.0133 34.0201 23.1581ZM20.7529 28.1038C20.2118 30.6185 20.5852 33.4991 21.7588 35.8386C22.3837 37.0807 23.0009 37.9266 24.0373 38.9706C26.7959 41.7292 30.5071 42.9408 34.4088 42.3541C38.9963 41.6758 42.9666 38.0637 44.1172 33.5143C44.483 32.0512 44.5745 30.8548 44.4297 29.2469C44.384 28.7058 44.1935 27.7228 44.1172 27.6008C44.0944 27.5627 44.102 27.5322 44.1401 27.5246C44.4297 27.4941 47.394 27.5018 47.4474 27.5399C47.4931 27.5627 47.5084 30.9462 47.5007 36.0443L47.4779 44.5107L47.2493 44.8383C47.1197 45.0212 46.8759 45.2346 46.6777 45.3413L46.3348 45.5166L32.4198 45.4937L18.5125 45.4785L18.2 45.2727C18.0324 45.1584 17.8114 44.9374 17.7123 44.7774L17.5294 44.4878L17.5066 36.0672C17.4989 31.4339 17.4989 27.6161 17.5218 27.5704C17.537 27.5246 18.1543 27.4941 19.2212 27.4941H20.89L20.7529 28.1038Z" fill="black"/>
</svg>
