<svg width="65" height="60" viewBox="0 0 65 60" fill="none" xmlns="http://www.w3.org/2000/svg">
<path d="M53.9744 18.8412C53.4681 20.4331 52.7856 21.8188 51.9306 23.0769L51.9662 23.0206C51.1262 24.4206 50.1231 26.0381 48.9569 27.8731C47.9569 29.3219 47.4275 30.0719 47.3688 30.1231C47.11 30.4475 46.93 30.845 46.8681 31.2819L46.8663 31.295C46.9169 31.6925 47.1006 32.0394 47.3688 32.2981L48.1187 33.1344C52.1313 37.2581 54.3881 40.1006 54.8894 41.6619C54.955 41.8344 54.9925 42.0331 54.9925 42.2413C54.9925 42.605 54.8763 42.9406 54.6794 43.2163L54.6831 43.2106C54.3531 43.55 53.8919 43.76 53.3819 43.76C53.3256 43.76 53.2675 43.7581 53.2131 43.7525H53.2206H48.2875C48.2856 43.7525 48.2819 43.7525 48.2781 43.7525C47.6462 43.7525 47.065 43.5313 46.6094 43.1638L46.615 43.1675C45.9512 42.6219 45.3606 42.0313 44.8319 41.39L44.815 41.3675C43.9512 40.3913 43.185 39.5694 42.5162 38.9019C40.2887 36.7844 38.645 35.7256 37.585 35.7256C37.5456 35.7219 37.5006 35.72 37.4538 35.72C37.1444 35.72 36.8556 35.8156 36.6175 35.9788L36.6231 35.975C36.4281 36.2188 36.31 36.5338 36.31 36.8731C36.31 36.9406 36.3137 37.0044 36.3231 37.07V37.0625C36.2725 37.6513 36.2425 38.3356 36.2425 39.0275C36.2425 39.2506 36.2462 39.4719 36.2519 39.6931V39.6613V41.8344C36.2706 41.9225 36.2819 42.0237 36.2819 42.1269C36.2819 42.5806 36.0756 42.9856 35.7531 43.2538L35.7513 43.2556C35.0256 43.5875 34.1781 43.7825 33.2837 43.7825C33.0925 43.7825 32.905 43.7731 32.7194 43.7563L32.7438 43.7581C29.7925 43.7019 27.055 42.8375 24.7281 41.3806L24.7938 41.4181C21.9606 39.6969 19.6131 37.4563 17.8244 34.8088L17.7738 34.73C16.075 32.4763 14.4906 29.93 13.1406 27.245L13.0094 26.9563C12.22 25.4525 11.4025 23.6038 10.6975 21.7025L10.585 21.3556C10.2981 20.5006 10.09 19.5069 10.0037 18.4775L10 18.4306C10 17.4831 10.5575 17.0094 11.6725 17.0094H16.6038C16.6488 17.0056 16.7012 17.0037 16.7556 17.0037C17.2206 17.0037 17.65 17.1631 17.9894 17.4313L17.9856 17.4275C18.3606 17.8381 18.6381 18.3425 18.775 18.905L18.7806 18.9275C19.6881 21.4906 20.65 23.6431 21.7562 25.7056L21.6306 25.4487C22.5344 27.2675 23.5338 28.8331 24.6738 30.2788L24.6306 30.2206C25.6306 31.4481 26.4106 32.0619 26.9706 32.0619C26.9875 32.0638 27.0081 32.0638 27.0306 32.0638C27.3081 32.0638 27.55 31.9138 27.6812 31.6888L27.6831 31.685C27.8219 31.3288 27.9025 30.9144 27.9025 30.4831C27.9025 30.3913 27.8987 30.2994 27.8912 30.2094V30.2206V22.9475C27.8519 22.0906 27.6419 21.29 27.2913 20.5719L27.3062 20.6075C27.0737 20.1125 26.7944 19.685 26.4625 19.3044L26.4681 19.3119C26.1606 19.0044 25.9506 18.6012 25.885 18.1512L25.8831 18.14C25.8831 17.8212 26.0294 17.5344 26.2581 17.3469L26.26 17.345C26.4869 17.1369 26.7906 17.0113 27.1225 17.0113H27.1375H34.9112C34.9525 17.0056 34.9994 17.0037 35.0481 17.0037C35.4138 17.0037 35.7419 17.1688 35.9594 17.4275L35.9612 17.4294C36.1544 17.7819 36.2687 18.2038 36.2687 18.65C36.2687 18.7213 36.265 18.7906 36.2594 18.86V18.8506V28.55C36.2556 28.595 36.2537 28.6475 36.2537 28.7C36.2537 29.045 36.3494 29.3694 36.5144 29.645L36.5106 29.6375C36.6475 29.84 36.8763 29.9713 37.135 29.9713H37.1369C37.4669 29.9488 37.7669 29.84 38.02 29.6675L38.0144 29.6713C38.5244 29.3206 38.9631 28.9213 39.3437 28.4694L39.3512 28.46C40.4894 27.1737 41.5394 25.7525 42.4544 24.2412L42.5275 24.11C43.1725 23.0413 43.87 21.725 44.5019 20.3731L44.6181 20.0975L45.4544 18.425C45.745 17.5887 46.525 17 47.4419 17C47.4775 17 47.5131 17 47.5487 17.0019H47.5431H52.4762C53.8087 17.0019 54.3088 17.615 53.9763 18.8412H53.9744Z" fill="black"/>
<path d="M64.75 30C64.75 46.412 50.3304 59.75 32.5 59.75C14.6696 59.75 0.25 46.412 0.25 30C0.25 13.588 14.6696 0.25 32.5 0.25C50.3304 0.25 64.75 13.588 64.75 30Z" stroke="black" stroke-width="0.5"/>
</svg>
