<svg width="65" height="60" viewBox="0 0 65 60" fill="none" xmlns="http://www.w3.org/2000/svg">
<path d="M64.75 30C64.75 46.412 50.3304 59.75 32.5 59.75C14.6696 59.75 0.25 46.412 0.25 30C0.25 13.588 14.6696 0.25 32.5 0.25C50.3304 0.25 64.75 13.588 64.75 30Z" stroke="black" stroke-width="0.5"/>
<path d="M28.2134 45.3782C19.974 45.2231 17.1598 45.0836 15.43 44.7193C14.2597 44.4772 13.2427 43.9398 12.4971 43.1603C11.9207 42.5704 11.4624 41.6703 11.1068 40.4214C10.8018 39.381 10.683 38.5154 10.5136 36.4009C10.2544 31.6288 10.1926 27.7273 10.5136 23.3679C10.7785 20.9605 10.907 18.1027 12.6664 16.4354C13.4972 15.6551 14.4636 15.1529 15.5488 14.9453C17.2441 14.6163 24.4666 14.3562 31.9435 14.3562C39.4035 14.3562 46.6421 14.6163 48.3389 14.9453C49.6946 15.2054 50.9661 15.9849 51.7126 16.99C53.3179 19.5714 53.346 22.7812 53.509 25.292C53.5764 26.4883 53.5764 33.2813 53.509 34.4776C53.2553 38.4456 53.0514 39.8495 52.4751 41.3051C52.1187 42.2241 51.8145 42.709 51.288 43.2465C50.4621 44.0735 49.4093 44.6236 48.2699 44.8235C41.1397 45.3716 35.0852 45.4906 28.2134 45.3782ZM39.1322 29.4339C35.1654 27.267 31.3672 25.2575 27.4846 23.1775V35.6214C31.5702 33.3511 35.8774 31.2711 39.1491 29.4167L39.1322 29.4339Z" fill="black"/>
</svg>
